<?xml version="1.0" standalone="no"?>
<!DOCTYPE svg PUBLIC "-//W3C//DTD SVG 20010904//EN"
        "http://www.w3.org/TR/2001/REC-SVG-20010904/DTD/svg10.dtd">
<svg version="1.0" xmlns="http://www.w3.org/2000/svg"
     width="500.000000pt" height="500.000000pt" viewBox="0 0 500.000000 500.000000"
     opacity="10%"
     preserveAspectRatio="xMidYMid meet">

    <g transform="translate(0.000000,500.000000) scale(0.100000,-0.100000)"
       fill="#000000" stroke="none">
        <path fill="currentColor" d="M2241 4739 l-73 -79 43 -52 c46 -55 50 -61 87 -128 27 -48 52 -124
52 -156 0 -16 -16 -30 -66 -55 -149 -76 -271 -230 -314 -396 -25 -98 -31 -255
-13 -363 6 -41 12 -81 12 -87 2 -34 129 11 195 68 29 26 58 65 79 109 l33 68
49 -59 c101 -119 204 -195 281 -206 59 -8 152 121 203 282 13 39 24 76 27 83
3 9 19 1 50 -27 65 -57 141 -85 236 -85 43 -1 82 4 88 10 10 10 7 36 -15 114
-84 307 -301 519 -560 548 l-59 7 -8 44 c-22 132 -122 316 -220 407 l-33 31
-74 -78z"/>
        <path fill="currentColor" d="M2903 3383 c-58 -88 -85 -116 -163 -167 -59 -39 -86 -43 -171 -25
-64 14 -128 43 -203 93 -63 42 -57 42 -140 -8 -38 -23 -39 -26 -41 -83 -7
-180 -54 -400 -128 -593 -13 -36 -57 -141 -97 -235 -88 -209 -152 -397 -182
-541 -30 -143 -32 -399 -5 -512 71 -294 274 -549 542 -682 145 -72 232 -93
385 -93 185 1 324 43 467 141 78 54 210 191 268 277 96 144 175 343 191 481
l7 53 -39 6 c-245 41 -436 222 -490 461 -21 99 -15 222 17 319 46 138 169 281
291 338 26 12 47 29 48 38 0 29 -117 360 -166 467 -13 29 -24 56 -24 59 0 4
-26 65 -57 135 l-56 128 -51 1 c-28 0 -60 2 -71 4 -11 2 -34 6 -51 10 -29 5
-33 1 -81 -72z m-576 -1625 c32 -19 33 -20 17 -50 -77 -148 -56 -364 47 -505
l41 -55 -73 -74 -73 -74 -33 32 c-18 18 -33 36 -33 42 0 5 -6 17 -14 25 -26
30 -59 96 -89 181 -28 77 -30 97 -31 210 0 130 18 220 65 312 l19 37 62 -31
c35 -16 78 -39 95 -50z"/>
    </g>
</svg>
